Monda---0_xx619_67.ufo
<glyph name="dollar" format="1">
  <advance width="1109"/>
  <unicode hex="0024"/>
  <outline>
    <contour>
      <point x="489" y="-83" type="line"/>
      <point x="568" y="-83" type="line"/>
      <point x="568" y="58" type="line"/>
      <point x="875" y="68"/>
      <point x="1038" y="200"/>
      <point x="1038" y="396" type="curve" smooth="yes"/>
      <point x="1038" y="610"/>
      <point x="933" y="705"/>
      <point x="764" y="832" type="curve"/>
      <point x="600" y="909" type="line" smooth="yes"/>
      <point x="473" y="962"/>
      <point x="374" y="1014"/>
      <point x="374" y="1101" type="curve" smooth="yes"/>
      <point x="374" y="1151"/>
      <point x="423" y="1209"/>
      <point x="554" y="1209" type="curve" smooth="yes"/>
      <point x="697" y="1209"/>
      <point x="721" y="1135"/>
      <point x="721" y="1075" type="curve" smooth="yes"/>
      <point x="721" y="1051"/>
      <point x="718" y="1029"/>
      <point x="717" y="1014" type="curve"/>
      <point x="1036" y="1055" type="line"/>
      <point x="1036" y="1093" type="line" smooth="yes"/>
      <point x="1036" y="1284"/>
      <point x="880" y="1427"/>
      <point x="632" y="1437" type="curve"/>
      <point x="632" y="1598" type="line"/>
      <point x="489" y="1598" type="line"/>
      <point x="489" y="1435" type="line"/>
      <point x="224" y="1415"/>
      <point x="78" y="1283"/>
      <point x="78" y="1065" type="curve" smooth="yes"/>
      <point x="78" y="877"/>
      <point x="196" y="779"/>
      <point x="312" y="687" type="curve"/>
      <point x="429" y="613" type="line"/>
      <point x="585" y="544"/>
      <point x="740" y="491"/>
      <point x="740" y="391" type="curve" smooth="yes"/>
      <point x="740" y="340"/>
      <point x="700" y="289"/>
      <point x="543" y="289" type="curve" smooth="yes"/>
      <point x="395" y="289"/>
      <point x="381" y="413"/>
      <point x="381" y="487" type="curve" smooth="yes"/>
      <point x="381" y="527" type="line"/>
      <point x="77" y="470" type="line"/>
      <point x="77" y="256"/>
      <point x="181" y="81"/>
      <point x="489" y="59" type="curve"/>
    </contour>
  </outline>
</glyph>
<glyph name="parenright" format="1">
  <advance width="575"/>
  <unicode hex="0029"/>
  <outline>
    <contour>
      <point x="91" y="-53" type="line"/>
      <point x="501" y="-55"/>
      <point x="490" y="471"/>
      <point x="490" y="762" type="curve" smooth="yes"/>
      <point x="490" y="1054"/>
      <point x="501" y="1580"/>
      <point x="91" y="1578" type="curve"/>
      <point x="91" y="1394" type="line"/>
      <point x="289" y="1397"/>
      <point x="252" y="875"/>
      <point x="252" y="762" type="curve" smooth="yes"/>
      <point x="252" y="649"/>
      <point x="289" y="128"/>
      <point x="91" y="131" type="curve"/>
    </contour>
  </outline>
</glyph>
<glyph name="comma" format="1">
  <advance width="412"/>
  <unicode hex="002C"/>
  <outline>
    <contour>
      <point x="77" y="232" type="line"/>
      <point x="77" y="0" type="line"/>
      <point x="195" y="0" type="line"/>
      <point x="195" y="-132"/>
      <point x="128" y="-239"/>
      <point x="81" y="-294" type="curve"/>
      <point x="187" y="-338" type="line"/>
      <point x="245" y="-284"/>
      <point x="351" y="-141"/>
      <point x="351" y="50" type="curve" smooth="yes"/>
      <point x="351" y="232" type="line"/>
    </contour>
  </outline>
</glyph>
<glyph name="two" format="1">
  <advance width="1191"/>
  <unicode hex="0032"/>
  <outline>
    <contour>
      <point x="1142" y="1108" type="curve" smooth="yes"/>
      <point x="1142" y="1357"/>
      <point x="1002" y="1518"/>
      <point x="593" y="1518" type="curve" smooth="yes"/>
      <point x="148" y="1518"/>
      <point x="50" y="1359"/>
      <point x="50" y="1056" type="curve" smooth="yes"/>
      <point x="50" y="962" type="line"/>
      <point x="402" y="962" type="line"/>
      <point x="402" y="1034" type="line" smooth="yes"/>
      <point x="402" y="1179"/>
      <point x="422" y="1267"/>
      <point x="593" y="1267" type="curve" smooth="yes"/>
      <point x="735" y="1267"/>
      <point x="779" y="1213"/>
      <point x="779" y="1093" type="curve" smooth="yes"/>
      <point x="779" y="971"/>
      <point x="699" y="885"/>
      <point x="590" y="774" type="curve" smooth="yes"/>
      <point x="83" y="256" type="line"/>
      <point x="83" y="0" type="line"/>
      <point x="1151" y="0" type="line"/>
      <point x="1151" y="286" type="line"/>
      <point x="543" y="286" type="line"/>
      <point x="843" y="554" type="line" smooth="yes"/>
      <point x="1022" y="714"/>
      <point x="1142" y="894"/>
    </contour>
  </outline>
</glyph>
<glyph name="seven" format="1">
  <advance width="1089"/>
  <unicode hex="0037"/>
  <outline>
    <contour>
      <point x="218" y="0" type="line"/>
      <point x="577" y="0" type="line"/>
      <point x="1004" y="1262" type="line"/>
      <point x="1004" y="1489" type="line"/>
      <point x="72" y="1489" type="line"/>
      <point x="72" y="1224" type="line"/>
      <point x="625" y="1224" type="line"/>
    </contour>
  </outline>
</glyph>
<glyph name="less" format="1">
  <advance width="837"/>
  <unicode hex="003C"/>
  <outline>
    <contour>
      <point x="61" y="434" type="line"/>
      <point x="743" y="44" type="line"/>
      <point x="743" y="285" type="line"/>
      <point x="621" y="373"/>
      <point x="464" y="460"/>
      <point x="253" y="549" type="curve"/>
      <point x="743" y="810" type="line"/>
      <point x="743" y="1053" type="line"/>
      <point x="61" y="661" type="line"/>
    </contour>
  </outline>
</glyph>
<glyph name="equal" format="1">
  <advance width="630"/>
  <unicode hex="003D"/>
  <outline>
    <contour>
      <point x="58" y="482" type="line"/>
      <point x="564" y="482" type="line"/>
      <point x="564" y="667" type="line"/>
      <point x="58" y="667" type="line"/>
    </contour>
    <contour>
      <point x="58" y="213" type="line"/>
      <point x="564" y="213" type="line"/>
      <point x="564" y="397" type="line"/>
      <point x="58" y="397" type="line"/>
    </contour>
  </outline>
</glyph>
<glyph name="question" format="1">
  <advance width="876"/>
  <unicode hex="003F"/>
  <outline>
    <contour>
      <point x="214" y="397" type="line"/>
      <point x="491" y="397" type="line"/>
      <point x="491" y="629" type="line"/>
      <point x="747" y="736"/>
      <point x="854" y="931"/>
      <point x="854" y="1144" type="curve" smooth="yes"/>
      <point x="854" y="1385"/>
      <point x="714" y="1518"/>
      <point x="400" y="1518" type="curve" smooth="yes"/>
      <point x="147" y="1518"/>
      <point x="38" y="1365"/>
      <point x="38" y="1165" type="curve" smooth="yes"/>
      <point x="38" y="1110"/>
      <point x="46" y="1051"/>
      <point x="62" y="991" type="curve"/>
      <point x="322" y="1041" type="line"/>
      <point x="312" y="1073"/>
      <point x="306" y="1111"/>
      <point x="306" y="1144" type="curve" smooth="yes"/>
      <point x="306" y="1214"/>
      <point x="335" y="1275"/>
      <point x="400" y="1275" type="curve" smooth="yes"/>
      <point x="467" y="1275"/>
      <point x="515" y="1236"/>
      <point x="515" y="1160" type="curve" smooth="yes"/>
      <point x="515" y="977"/>
      <point x="352" y="812"/>
      <point x="214" y="718" type="curve"/>
    </contour>
    <contour>
      <point x="214" y="0" type="line"/>
      <point x="491" y="0" type="line"/>
      <point x="491" y="268" type="line"/>
      <point x="214" y="268" type="line"/>
    </contour>
  </outline>
</glyph>
<glyph name="B" format="1">
  <advance width="1428"/>
  <unicode hex="0042"/>
  <outline>
    <contour>
      <point x="155" y="0" type="line"/>
      <point x="815" y="0" type="line" smooth="yes"/>
      <point x="1187" y="0"/>
      <point x="1330" y="150"/>
      <point x="1319" y="469" type="curve"/>
      <point x="1319" y="666"/>
      <point x="1291" y="794"/>
      <point x="1070" y="817" type="curve"/>
      <point x="1233" y="853"/>
      <point x="1277" y="945"/>
      <point x="1277" y="1105" type="curve" smooth="yes"/>
      <point x="1277" y="1376"/>
      <point x="1158" y="1490"/>
      <point x="739" y="1490" type="curve" smooth="yes"/>
      <point x="155" y="1490" type="line"/>
    </contour>
    <contour>
      <point x="494" y="904" type="line"/>
      <point x="494" y="1264" type="line"/>
      <point x="726" y="1264" type="line" smooth="yes"/>
      <point x="908" y="1264"/>
      <point x="929" y="1233"/>
      <point x="929" y="1102" type="curve" smooth="yes"/>
      <point x="929" y="967"/>
      <point x="924" y="904"/>
      <point x="755" y="904" type="curve" smooth="yes"/>
    </contour>
    <contour>
      <point x="494" y="234" type="line"/>
      <point x="494" y="706" type="line"/>
      <point x="758" y="706" type="line" smooth="yes"/>
      <point x="980" y="706"/>
      <point x="980" y="623"/>
      <point x="980" y="470" type="curve" smooth="yes"/>
      <point x="980" y="278"/>
      <point x="976" y="234"/>
      <point x="742" y="234" type="curve" smooth="yes"/>
    </contour>
  </outline>
</glyph>
<glyph name="C" format="1">
  <advance width="1508"/>
  <unicode hex="0043"/>
  <outline>
    <contour>
      <point x="1387" y="904" type="line"/>
      <point x="1387" y="987" type="line" smooth="yes"/>
      <point x="1387" y="1282"/>
      <point x="1306" y="1518"/>
      <point x="775" y="1518" type="curve"/>
      <point x="227" y="1518"/>
      <point x="137" y="1288"/>
      <point x="137" y="993" type="curve" smooth="yes"/>
      <point x="137" y="483" type="line" smooth="yes"/>
      <point x="137" y="196"/>
      <point x="230" y="-29"/>
      <point x="775" y="-29" type="curve"/>
      <point x="1308" y="-29"/>
      <point x="1387" y="203"/>
      <point x="1387" y="490" type="curve" smooth="yes"/>
      <point x="1387" y="594" type="line"/>
      <point x="1053" y="594" type="line"/>
      <point x="1053" y="454" type="line" smooth="yes"/>
      <point x="1053" y="276"/>
      <point x="985" y="237"/>
      <point x="775" y="237" type="curve" smooth="yes"/>
      <point x="568" y="237"/>
      <point x="476" y="275"/>
      <point x="476" y="454" type="curve" smooth="yes"/>
      <point x="476" y="1028" type="line" smooth="yes"/>
      <point x="476" y="1206"/>
      <point x="570" y="1252"/>
      <point x="775" y="1252" type="curve" smooth="yes"/>
      <point x="982" y="1252"/>
      <point x="1053" y="1200"/>
      <point x="1053" y="1028" type="curve" smooth="yes"/>
      <point x="1053" y="904" type="line"/>
    </contour>
  </outline>
</glyph>
<glyph name="D" format="1">
  <advance width="1490"/>
  <unicode hex="0044"/>
  <outline>
    <contour>
      <point x="1014" y="473" type="line"/>
      <point x="1014" y="355"/>
      <point x="1003" y="266"/>
      <point x="793" y="266" type="curve" smooth="yes"/>
      <point x="494" y="266" type="line"/>
      <point x="494" y="1223" type="line"/>
      <point x="793" y="1223" type="line" smooth="yes"/>
      <point x="1000" y="1223"/>
      <point x="1014" y="1125"/>
      <point x="1014" y="1013" type="curve" smooth="yes"/>
    </contour>
    <contour>
      <point x="822" y="0" type="line"/>
      <point x="1258" y="0"/>
      <point x="1353" y="232"/>
      <point x="1353" y="519" type="curve" smooth="yes"/>
      <point x="1353" y="962" type="line" smooth="yes"/>
      <point x="1353" y="1257"/>
      <point x="1261" y="1490"/>
      <point x="822" y="1490" type="curve" smooth="yes"/>
      <point x="155" y="1490" type="line"/>
      <point x="155" y="0" type="line"/>
    </contour>
  </outline>
</glyph>
<glyph name="F" format="1">
  <advance width="1123"/>
  <unicode hex="0046"/>
  <outline>
    <contour>
      <point x="155" y="0" type="line"/>
      <point x="494" y="0" type="line"/>
      <point x="494" y="621" type="line"/>
      <point x="995" y="621" type="line"/>
      <point x="995" y="861" type="line"/>
      <point x="494" y="861" type="line"/>
      <point x="494" y="1228" type="line"/>
      <point x="1051" y="1228" type="line"/>
      <point x="1051" y="1490" type="line"/>
      <point x="155" y="1490" type="line"/>
    </contour>
  </outline>
</glyph>
<glyph name="J" format="1">
  <advance width="1197"/>
  <unicode hex="004A"/>
  <outline>
    <contour>
      <point x="775" y="1236" type="line"/>
      <point x="991" y="1236" type="line"/>
      <point x="991" y="1490" type="line"/>
      <point x="275" y="1490" type="line"/>
      <point x="275" y="1236" type="line"/>
    </contour>
    <contour>
      <point x="40" y="66" type="line"/>
      <point x="198" y="-7"/>
      <point x="347" y="-39"/>
      <point x="480" y="-39" type="curve" smooth="yes"/>
      <point x="813" y="-39"/>
      <point x="1041" y="130"/>
      <point x="1041" y="418" type="curve" smooth="yes"/>
      <point x="1041" y="1490" type="line"/>
      <point x="702" y="1490" type="line"/>
      <point x="702" y="451" type="line" smooth="yes"/>
      <point x="702" y="350"/>
      <point x="639" y="244"/>
      <point x="455" y="244" type="curve" smooth="yes"/>
      <point x="370" y="244"/>
      <point x="259" y="266"/>
      <point x="117" y="323" type="curve"/>
    </contour>
  </outline>
</glyph>
<glyph name="T" format="1">
  <advance width="1211"/>
  <unicode hex="0054"/>
  <outline>
    <contour>
      <point x="421" y="0" type="line"/>
      <point x="760" y="0" type="line"/>
      <point x="760" y="1236" type="line"/>
      <point x="1160" y="1236" type="line"/>
      <point x="1160" y="1490" type="line"/>
      <point x="51" y="1490" type="line"/>
      <point x="51" y="1236" type="line"/>
      <point x="421" y="1236" type="line"/>
    </contour>
  </outline>
</glyph>
<glyph name="W" format="1">
  <advance width="1970"/>
  <unicode hex="0057"/>
  <outline>
    <contour>
      <point x="420" y="0" type="line"/>
      <point x="723" y="0" type="line"/>
      <point x="973" y="975" type="line"/>
      <point x="1248" y="0" type="line"/>
      <point x="1545" y="0" type="line"/>
      <point x="1917" y="1490" type="line"/>
      <point x="1580" y="1490" type="line"/>
      <point x="1380" y="519" type="line"/>
      <point x="1104" y="1490" type="line"/>
      <point x="837" y="1490" type="line"/>
      <point x="609" y="503" type="line"/>
      <point x="390" y="1490" type="line"/>
      <point x="53" y="1490" type="line"/>
    </contour>
  </outline>
</glyph>
<glyph name="b" format="1">
  <advance width="1178"/>
  <unicode hex="0062"/>
  <outline>
    <contour>
      <point x="433" y="851" type="line"/>
      <point x="433" y="851"/>
      <point x="498" y="894"/>
      <point x="601" y="894" type="curve" smooth="yes"/>
      <point x="714" y="894"/>
      <point x="769" y="860"/>
      <point x="769" y="761" type="curve" smooth="yes"/>
      <point x="769" y="319" type="line" smooth="yes"/>
      <point x="769" y="220"/>
      <point x="704" y="186"/>
      <point x="601" y="186" type="curve" smooth="yes"/>
      <point x="488" y="186"/>
      <point x="393" y="220"/>
      <point x="393" y="319" type="curve"/>
      <point x="433" y="411" type="line"/>
      <point x="130" y="411" type="line"/>
      <point x="130" y="400" type="line" smooth="yes"/>
      <point x="130" y="303"/>
      <point x="309" y="-25"/>
      <point x="654" y="-25" type="curve" smooth="yes"/>
      <point x="909" y="-25"/>
      <point x="1079" y="111"/>
      <point x="1079" y="319" type="curve" smooth="yes"/>
      <point x="1079" y="761" type="line" smooth="yes"/>
      <point x="1079" y="932"/>
      <point x="984" y="1104"/>
      <point x="669" y="1104" type="curve" smooth="yes"/>
      <point x="336" y="1104"/>
      <point x="154" y="812"/>
      <point x="130" y="659" type="curve"/>
      <point x="130" y="649" type="line"/>
      <point x="433" y="649" type="line"/>
    </contour>
    <contour>
      <point x="122" y="0" type="line"/>
      <point x="333" y="0" type="line"/>
      <point x="433" y="225" type="line"/>
      <point x="433" y="1490" type="line"/>
      <point x="122" y="1490" type="line"/>
    </contour>
  </outline>
</glyph>
<glyph name="g" format="1">
  <advance width="1178"/>
  <unicode hex="0067"/>
  <outline>
    <contour>
      <point x="745" y="851" type="line"/>
      <point x="745" y="851"/>
      <point x="680" y="894"/>
      <point x="577" y="894" type="curve" smooth="yes"/>
      <point x="464" y="894"/>
      <point x="409" y="860"/>
      <point x="409" y="761" type="curve" smooth="yes"/>
      <point x="409" y="343" type="line" smooth="yes"/>
      <point x="409" y="244"/>
      <point x="474" y="210"/>
      <point x="577" y="210" type="curve" smooth="yes"/>
      <point x="690" y="210"/>
      <point x="785" y="244"/>
      <point x="785" y="343" type="curve"/>
      <point x="745" y="435" type="line"/>
      <point x="1048" y="435" type="line"/>
      <point x="1048" y="424" type="line" smooth="yes"/>
      <point x="1048" y="327"/>
      <point x="869" y="-1"/>
      <point x="524" y="-1" type="curve" smooth="yes"/>
      <point x="269" y="-1"/>
      <point x="99" y="135"/>
      <point x="99" y="343" type="curve" smooth="yes"/>
      <point x="99" y="761" type="line" smooth="yes"/>
      <point x="99" y="932"/>
      <point x="195" y="1104"/>
      <point x="510" y="1104" type="curve" smooth="yes"/>
      <point x="843" y="1104"/>
      <point x="1024" y="812"/>
      <point x="1048" y="659" type="curve"/>
      <point x="1048" y="649" type="line"/>
      <point x="745" y="649" type="line"/>
    </contour>
    <contour>
      <point x="1056" y="1081" type="line"/>
      <point x="1056" y="-27" type="line"/>
      <point x="745" y="6" type="line"/>
      <point x="745" y="856" type="line"/>
      <point x="845" y="1081" type="line"/>
    </contour>
    <contour>
      <point x="241" y="-134" type="line"/>
      <point x="364" y="-183"/>
      <point x="495" y="-186"/>
      <point x="543" y="-186" type="curve" smooth="yes"/>
      <point x="659" y="-186"/>
      <point x="745" y="-168"/>
      <point x="745" y="-11" type="curve" smooth="yes"/>
      <point x="745" y="17" type="line"/>
      <point x="1056" y="-27" type="line"/>
      <point x="1056" y="-225"/>
      <point x="938" y="-425"/>
      <point x="564" y="-425" type="curve" smooth="yes"/>
      <point x="436" y="-425"/>
      <point x="252" y="-384"/>
      <point x="179" y="-345" type="curve"/>
    </contour>
  </outline>
</glyph>
<glyph name="s" format="1">
  <advance width="1005"/>
  <unicode hex="0073"/>
  <outline>
    <contour>
      <point x="188" y="315" type="line"/>
      <point x="310" y="222"/>
      <point x="429" y="188"/>
      <point x="517" y="188" type="curve"/>
      <point x="577" y="188"/>
      <point x="613" y="220"/>
      <point x="624" y="267" type="curve" smooth="yes"/>
      <point x="626" y="274"/>
      <point x="626" y="281"/>
      <point x="626" y="288" type="curve" smooth="yes"/>
      <point x="626" y="328"/>
      <point x="597" y="366"/>
      <point x="528" y="396" type="curve" smooth="yes"/>
      <point x="315" y="495" type="line" smooth="yes"/>
      <point x="156" y="564"/>
      <point x="96" y="645"/>
      <point x="96" y="784" type="curve" smooth="yes"/>
      <point x="96" y="1013"/>
      <point x="284" y="1104"/>
      <point x="497" y="1104" type="curve" smooth="yes"/>
      <point x="694" y="1104"/>
      <point x="840" y="1022"/>
      <point x="904" y="958" type="curve"/>
      <point x="801" y="793" type="line"/>
      <point x="743" y="839"/>
      <point x="623" y="901"/>
      <point x="517" y="901" type="curve"/>
      <point x="427" y="901"/>
      <point x="393" y="864"/>
      <point x="393" y="805" type="curve" smooth="yes"/>
      <point x="393" y="759"/>
      <point x="429" y="733"/>
      <point x="472" y="714" type="curve" smooth="yes"/>
      <point x="674" y="620" type="line" smooth="yes"/>
      <point x="845" y="545"/>
      <point x="917" y="482"/>
      <point x="917" y="313" type="curve" smooth="yes"/>
      <point x="917" y="125"/>
      <point x="776" y="-24"/>
      <point x="519" y="-24" type="curve" smooth="yes"/>
      <point x="348" y="-24"/>
      <point x="190" y="30"/>
      <point x="73" y="132" type="curve"/>
    </contour>
  </outline>
</glyph>
<glyph name="w" format="1">
  <advance width="1575"/>
  <unicode hex="0077"/>
  <outline>
    <contour>
      <point x="312" y="0" type="line"/>
      <point x="594" y="0" type="line"/>
      <point x="797" y="692" type="line"/>
      <point x="988" y="0" type="line"/>
      <point x="1282" y="0" type="line"/>
      <point x="1524" y="1080" type="line"/>
      <point x="1237" y="1080" type="line"/>
      <point x="1101" y="401" type="line"/>
      <point x="908" y="1080" type="line"/>
      <point x="681" y="1080" type="line"/>
      <point x="493" y="414" type="line"/>
      <point x="342" y="1080" type="line"/>
      <point x="51" y="1080" type="line"/>
    </contour>
  </outline>
</glyph>
<glyph name="y" format="1">
  <advance width="1099"/>
  <unicode hex="0079"/>
  <outline>
    <contour>
      <point x="264" y="-416" type="line"/>
      <point x="577" y="-416"/>
      <point x="603" y="-336"/>
      <point x="749" y="105" type="curve" smooth="yes"/>
      <point x="1071" y="1080" type="line"/>
      <point x="775" y="1080" type="line"/>
      <point x="572" y="365" type="line"/>
      <point x="319" y="1080" type="line"/>
      <point x="22" y="1080" type="line"/>
      <point x="428" y="-4" type="line"/>
      <point x="397" y="-119"/>
      <point x="378" y="-208"/>
      <point x="260" y="-208" type="curve" smooth="yes"/>
      <point x="141" y="-208" type="line"/>
      <point x="141" y="-416" type="line"/>
    </contour>
  </outline>
</glyph>
<glyph name="z" format="1">
  <advance width="949"/>
  <unicode hex="007A"/>
  <outline>
    <contour>
      <point x="99" y="0" type="line"/>
      <point x="880" y="0" type="line"/>
      <point x="880" y="202" type="line"/>
      <point x="450" y="202" type="line"/>
      <point x="865" y="895" type="line"/>
      <point x="865" y="1080" type="line"/>
      <point x="118" y="1080" type="line"/>
      <point x="118" y="879" type="line"/>
      <point x="492" y="879" type="line"/>
      <point x="99" y="189" type="line"/>
    </contour>
  </outline>
</glyph>
<glyph name="braceright" format="1">
  <advance width="630"/>
  <unicode hex="007D"/>
  <outline>
    <contour>
      <point x="58" y="-53" type="line"/>
      <point x="393" y="-53"/>
      <point x="458" y="135"/>
      <point x="458" y="440" type="curve" smooth="yes"/>
      <point x="458" y="542"/>
      <point x="437" y="646"/>
      <point x="564" y="644" type="curve"/>
      <point x="564" y="881" type="line"/>
      <point x="436" y="880"/>
      <point x="458" y="1111"/>
      <point x="458" y="1191" type="curve" smooth="yes"/>
      <point x="458" y="1510"/>
      <point x="359" y="1578"/>
      <point x="58" y="1578" type="curve"/>
      <point x="58" y="1394" type="line"/>
      <point x="219" y="1395"/>
      <point x="219" y="1343"/>
      <point x="219" y="1191" type="curve" smooth="yes"/>
      <point x="219" y="1062"/>
      <point x="244" y="840"/>
      <point x="366" y="763" type="curve"/>
      <point x="241" y="693"/>
      <point x="226" y="558"/>
      <point x="220" y="430" type="curve" smooth="yes"/>
      <point x="213" y="274"/>
      <point x="220" y="130"/>
      <point x="58" y="131" type="curve"/>
    </contour>
  </outline>
</glyph>
<glyph name="asciitilde" format="1">
  <advance width="1012"/>
  <unicode hex="007E"/>
  <outline>
    <contour>
      <point x="115" y="697" type="curve"/>
      <point x="266" y="697" type="line"/>
      <point x="266" y="717"/>
      <point x="267" y="753"/>
      <point x="294" y="753" type="curve" smooth="yes"/>
      <point x="362" y="753"/>
      <point x="539" y="680"/>
      <point x="694" y="680" type="curve" smooth="yes"/>
      <point x="831" y="680"/>
      <point x="888" y="802"/>
      <point x="887" y="934" type="curve"/>
      <point x="738" y="934" type="line"/>
      <point x="738" y="913"/>
      <point x="735" y="877"/>
      <point x="707" y="877" type="curve" smooth="yes"/>
      <point x="621" y="877"/>
      <point x="464" y="949"/>
      <point x="309" y="949" type="curve" smooth="yes"/>
      <point x="172" y="949"/>
      <point x="114" y="829"/>
    </contour>
  </outline>
</glyph>
<glyph name="yen" format="1">
  <advance width="1036"/>
  <unicode hex="00A5"/>
  <outline>
    <contour>
      <point x="395" y="0" type="line"/>
      <point x="632" y="0" type="line"/>
      <point x="632" y="214" type="line"/>
      <point x="857" y="214" type="line"/>
      <point x="857" y="379" type="line"/>
      <point x="632" y="379" type="line"/>
      <point x="632" y="463" type="line"/>
      <point x="857" y="463" type="line"/>
      <point x="857" y="626" type="line"/>
      <point x="698" y="626" type="line"/>
      <point x="981" y="1525" type="line"/>
      <point x="705" y="1525" type="line"/>
      <point x="513" y="780" type="line"/>
      <point x="319" y="1525" type="line"/>
      <point x="42" y="1525" type="line"/>
      <point x="123" y="1225"/>
      <point x="207" y="926"/>
      <point x="322" y="626" type="curve"/>
      <point x="167" y="626" type="line"/>
      <point x="167" y="463" type="line"/>
      <point x="395" y="463" type="line"/>
      <point x="395" y="379" type="line"/>
      <point x="167" y="379" type="line"/>
      <point x="167" y="214" type="line"/>
      <point x="395" y="214" type="line"/>
    </contour>
  </outline>
</glyph>
<glyph name="copyright" format="1">
  <advance width="1752"/>
  <unicode hex="00A9"/>
  <outline>
    <contour>
      <point x="1017" y="508" type="line"/>
      <point x="1017" y="453"/>
      <point x="1020" y="329"/>
      <point x="879" y="329" type="curve" smooth="yes"/>
      <point x="769" y="329"/>
      <point x="706" y="360"/>
      <point x="706" y="604" type="curve" smooth="yes"/>
      <point x="706" y="811"/>
      <point x="764" y="867"/>
      <point x="892" y="867" type="curve" smooth="yes"/>
      <point x="1016" y="867"/>
      <point x="1015" y="750"/>
      <point x="1015" y="704" type="curve"/>
      <point x="1194" y="704" type="line"/>
      <point x="1194" y="868"/>
      <point x="1136" y="1012"/>
      <point x="889" y="1012" type="curve" smooth="yes"/>
      <point x="547" y="1012"/>
      <point x="545" y="795"/>
      <point x="545" y="592" type="curve" smooth="yes"/>
      <point x="545" y="400"/>
      <point x="550" y="181"/>
      <point x="879" y="181" type="curve" smooth="yes"/>
      <point x="1121" y="181"/>
      <point x="1191" y="323"/>
      <point x="1191" y="508" type="curve"/>
    </contour>
    <contour>
      <point x="873" y="135" type="curve" smooth="yes"/>
      <point x="550" y="135"/>
      <point x="235" y="356"/>
      <point x="235" y="595" type="curve" smooth="yes"/>
      <point x="235" y="834"/>
      <point x="550" y="1055"/>
      <point x="873" y="1055" type="curve" smooth="yes"/>
      <point x="1186" y="1055"/>
      <point x="1500" y="833"/>
      <point x="1500" y="595" type="curve" smooth="yes"/>
      <point x="1500" y="357"/>
      <point x="1186" y="135"/>
    </contour>
    <contour>
      <point x="873" y="-12" type="curve" smooth="yes"/>
      <point x="1336" y="-12"/>
      <point x="1668" y="269"/>
      <point x="1668" y="598" type="curve" smooth="yes"/>
      <point x="1668" y="927"/>
      <point x="1337" y="1209"/>
      <point x="873" y="1209" type="curve" smooth="yes"/>
      <point x="400" y="1209"/>
      <point x="69" y="927"/>
      <point x="69" y="598" type="curve" smooth="yes"/>
      <point x="69" y="268"/>
      <point x="400" y="-12"/>
    </contour>
  </outline>
</glyph>
<glyph name="registered" format="1">
  <advance width="1897"/>
  <unicode hex="00AE"/>
  <outline>
    <contour>
      <point x="1329" y="223" type="curve"/>
      <point x="1252" y="330"/>
      <point x="1144" y="452"/>
      <point x="1107" y="564" type="curve"/>
      <point x="1238" y="608"/>
      <point x="1295" y="676"/>
      <point x="1295" y="760" type="curve" smooth="yes"/>
      <point x="1295" y="918"/>
      <point x="1157" y="1001"/>
      <point x="867" y="1001" type="curve" smooth="yes"/>
      <point x="626" y="1001" type="line"/>
      <point x="685" y="1035"/>
      <point x="752" y="1055"/>
      <point x="879" y="1055" type="curve" smooth="yes"/>
      <point x="1327" y="1055"/>
      <point x="1645" y="833"/>
      <point x="1645" y="595" type="curve" smooth="yes"/>
      <point x="1645" y="449"/>
      <point x="1526" y="309"/>
    </contour>
    <contour>
      <point x="879" y="-12" type="curve" smooth="yes"/>
      <point x="1481" y="-12"/>
      <point x="1813" y="269"/>
      <point x="1813" y="598" type="curve" smooth="yes"/>
      <point x="1813" y="927"/>
      <point x="1482" y="1209"/>
      <point x="879" y="1209" type="curve" smooth="yes"/>
      <point x="400" y="1209"/>
      <point x="69" y="927"/>
      <point x="69" y="598" type="curve" smooth="yes"/>
      <point x="69" y="268"/>
      <point x="400" y="-12"/>
    </contour>
    <contour>
      <point x="607" y="208" type="line"/>
      <point x="761" y="208" type="line"/>
      <point x="761" y="530" type="line"/>
      <point x="848" y="530" type="line"/>
      <point x="1040" y="208" type="line"/>
      <point x="1295" y="208" type="line"/>
      <point x="1179" y="162"/>
      <point x="1035" y="135"/>
      <point x="879" y="135" type="curve" smooth="yes"/>
      <point x="554" y="135"/>
      <point x="235" y="356"/>
      <point x="235" y="595" type="curve" smooth="yes"/>
      <point x="235" y="756"/>
      <point x="378" y="908"/>
      <point x="607" y="991" type="curve"/>
    </contour>
    <contour>
      <point x="761" y="634" type="curve"/>
      <point x="761" y="879" type="line"/>
      <point x="846" y="879" type="line" smooth="yes"/>
      <point x="977" y="879"/>
      <point x="1012" y="827"/>
      <point x="1012" y="763" type="curve" smooth="yes"/>
      <point x="1012" y="662"/>
      <point x="938" y="634"/>
    </contour>
  </outline>
</glyph>
<glyph name="plusminus" format="1">
  <advance width="740"/>
  <unicode hex="00B1"/>
  <outline>
    <contour>
      <point x="113" y="0" type="line"/>
      <point x="618" y="0" type="line"/>
      <point x="618" y="185" type="line"/>
      <point x="113" y="185" type="line"/>
    </contour>
    <contour>
      <point x="273" y="322" type="line"/>
      <point x="458" y="322" type="line"/>
      <point x="458" y="482" type="line"/>
      <point x="618" y="482" type="line"/>
      <point x="618" y="667" type="line"/>
      <point x="458" y="667" type="line"/>
      <point x="458" y="828" type="line"/>
      <point x="273" y="828" type="line"/>
      <point x="273" y="667" type="line"/>
      <point x="113" y="667" type="line"/>
      <point x="113" y="482" type="line"/>
      <point x="273" y="482" type="line"/>
    </contour>
  </outline>
</glyph>
<glyph name="acute" format="1">
  <advance width="527"/>
  <unicode hex="00B4"/>
  <outline>
    <contour>
      <point x="94" y="1153" type="line"/>
      <point x="262" y="1153" type="line"/>
      <point x="492" y="1518" type="line"/>
      <point x="206" y="1518" type="line"/>
    </contour>
  </outline>
</glyph>
<glyph name="paragraph" format="1">
  <advance width="918"/>
  <unicode hex="00B6"/>
  <outline>
    <contour>
      <point x="326" y="0" type="line"/>
      <point x="514" y="0" type="line"/>
      <point x="514" y="734" type="line"/>
      <point x="682" y="734" type="line"/>
      <point x="682" y="0" type="line"/>
      <point x="855" y="0" type="line"/>
      <point x="855" y="1310" type="line"/>
      <point x="372" y="1310" type="line" smooth="yes"/>
      <point x="178" y="1310"/>
      <point x="19" y="1236"/>
      <point x="19" y="1020" type="curve" smooth="yes"/>
      <point x="19" y="840"/>
      <point x="154" y="738"/>
      <point x="326" y="734" type="curve"/>
    </contour>
  </outline>
</glyph>
<glyph name="Ntilde" format="1">
  <advance width="1334"/>
  <unicode hex="00D1"/>
  <outline>
    <contour>
      <point x="465" y="1593" type="line"/>
      <point x="465" y="1616"/>
      <point x="463" y="1645"/>
      <point x="506" y="1645" type="curve" smooth="yes"/>
      <point x="628" y="1645"/>
      <point x="792" y="1584"/>
      <point x="880" y="1584" type="curve" smooth="yes"/>
      <point x="999" y="1584"/>
      <point x="1009" y="1742"/>
      <point x="1009" y="1831" type="curve"/>
      <point x="880" y="1831" type="line"/>
      <point x="880" y="1811"/>
      <point x="880" y="1793"/>
      <point x="851" y="1793" type="curve" smooth="yes"/>
      <point x="796" y="1793"/>
      <point x="633" y="1841"/>
      <point x="480" y="1841" type="curve" smooth="yes"/>
      <point x="347" y="1841"/>
      <point x="327" y="1719"/>
      <point x="327" y="1593" type="curve"/>
    </contour>
    <contour>
      <point x="162" y="0" type="line"/>
      <point x="466" y="0" type="line"/>
      <point x="466" y="868" type="line"/>
      <point x="1093" y="0" type="line"/>
      <point x="1287" y="0" type="line"/>
      <point x="1287" y="1490" type="line"/>
      <point x="986" y="1490" type="line"/>
      <point x="986" y="645" type="line"/>
      <point x="382" y="1490" type="line"/>
      <point x="162" y="1490" type="line"/>
    </contour>
  </outline>
</glyph>
<glyph name="Otilde" format="1">
  <advance width="1354"/>
  <unicode hex="00D5"/>
  <outline>
    <contour>
      <point x="475" y="1593" type="line"/>
      <point x="475" y="1616"/>
      <point x="473" y="1645"/>
      <point x="516" y="1645" type="curve" smooth="yes"/>
      <point x="638" y="1645"/>
      <point x="802" y="1584"/>
      <point x="890" y="1584" type="curve" smooth="yes"/>
      <point x="1009" y="1584"/>
      <point x="1019" y="1742"/>
      <point x="1019" y="1831" type="curve"/>
      <point x="890" y="1831" type="line"/>
      <point x="890" y="1811"/>
      <point x="890" y="1793"/>
      <point x="861" y="1793" type="curve" smooth="yes"/>
      <point x="806" y="1793"/>
      <point x="643" y="1841"/>
      <point x="490" y="1841" type="curve" smooth="yes"/>
      <point x="357" y="1841"/>
      <point x="337" y="1719"/>
      <point x="337" y="1593" type="curve"/>
    </contour>
    <contour>
      <point x="917" y="404" type="line"/>
      <point x="917" y="286"/>
      <point x="903" y="237"/>
      <point x="693" y="237" type="curve" smooth="yes"/>
      <point x="486" y="237"/>
      <point x="469" y="285"/>
      <point x="469" y="404" type="curve" smooth="yes"/>
      <point x="469" y="1082" type="line" smooth="yes"/>
      <point x="469" y="1200"/>
      <point x="488" y="1252"/>
      <point x="693" y="1252" type="curve" smooth="yes"/>
      <point x="900" y="1252"/>
      <point x="917" y="1194"/>
      <point x="917" y="1082" type="curve" smooth="yes"/>
    </contour>
    <contour>
      <point x="745" y="-29" type="line"/>
      <point x="1181" y="-29"/>
      <point x="1255" y="203"/>
      <point x="1255" y="490" type="curve" smooth="yes"/>
      <point x="1255" y="991" type="line" smooth="yes"/>
      <point x="1255" y="1286"/>
      <point x="1184" y="1518"/>
      <point x="745" y="1518" type="curve" smooth="yes"/>
      <point x="640" y="1518" type="line" smooth="yes"/>
      <point x="201" y="1518"/>
      <point x="131" y="1302"/>
      <point x="131" y="1007" type="curve" smooth="yes"/>
      <point x="131" y="473" type="line" smooth="yes"/>
      <point x="131" y="186"/>
      <point x="204" y="-29"/>
      <point x="640" y="-29" type="curve" smooth="yes"/>
    </contour>
  </outline>
</glyph>
<glyph name="multiply" format="1">
  <advance width="815"/>
  <unicode hex="00D7"/>
  <outline>
    <contour>
      <point x="54" y="387" type="line"/>
      <point x="178" y="263" type="line"/>
      <point x="403" y="425" type="line"/>
      <point x="630" y="263" type="line"/>
      <point x="753" y="387" type="line"/>
      <point x="699" y="439"/>
      <point x="646" y="494"/>
      <point x="593" y="548" type="curve"/>
      <point x="753" y="708" type="line"/>
      <point x="630" y="833" type="line"/>
      <point x="403" y="672" type="line"/>
      <point x="178" y="833" type="line"/>
      <point x="54" y="708" type="line"/>
      <point x="214" y="548" type="line"/>
    </contour>
  </outline>
</glyph>
<glyph name="Uacute" format="1">
  <advance width="1373"/>
  <unicode hex="00DA"/>
  <outline>
    <contour>
      <point x="488" y="1563" type="line"/>
      <point x="656" y="1563" type="line"/>
      <point x="886" y="1928" type="line"/>
      <point x="600" y="1928" type="line"/>
    </contour>
    <contour>
      <point x="925" y="1490" type="line"/>
      <point x="925" y="404" type="line" smooth="yes"/>
      <point x="925" y="286"/>
      <point x="911" y="237"/>
      <point x="701" y="237" type="curve" smooth="yes"/>
      <point x="494" y="237"/>
      <point x="477" y="285"/>
      <point x="477" y="404" type="curve" smooth="yes"/>
      <point x="477" y="1490" type="line"/>
      <point x="139" y="1490" type="line"/>
      <point x="139" y="473" type="line" smooth="yes"/>
      <point x="139" y="186"/>
      <point x="212" y="-29"/>
      <point x="648" y="-29" type="curve" smooth="yes"/>
      <point x="753" y="-29" type="line" smooth="yes"/>
      <point x="1189" y="-29"/>
      <point x="1264" y="203"/>
      <point x="1264" y="490" type="curve" smooth="yes"/>
      <point x="1264" y="1490" type="line"/>
    </contour>
  </outline>
</glyph>
<glyph name="hcircumflex" format="1">
  <advance width="990"/>
  <unicode hex="0125"/>
  <outline>
    <contour>
      <point x="131" y="0" type="line"/>
      <point x="441" y="0" type="line"/>
      <point x="441" y="814" type="line" smooth="yes"/>
      <point x="441" y="851"/>
      <point x="511" y="894"/>
      <point x="572" y="894" type="curve" smooth="yes"/>
      <point x="621" y="894"/>
      <point x="664" y="867"/>
      <point x="664" y="790" type="curve" smooth="yes"/>
      <point x="664" y="0" type="line"/>
      <point x="975" y="0" type="line"/>
      <point x="975" y="871" type="line" smooth="yes"/>
      <point x="975" y="979"/>
      <point x="912" y="1104"/>
      <point x="751" y="1104" type="curve" smooth="yes"/>
      <point x="613" y="1104"/>
      <point x="534" y="1070"/>
      <point x="441" y="1004" type="curve"/>
      <point x="441" y="1491" type="line"/>
      <point x="131" y="1491" type="line"/>
    </contour>
    <contour>
      <point x="130" y="1574" type="line"/>
      <point x="375" y="1574" type="line"/>
      <point x="484" y="1741" type="line"/>
      <point x="595" y="1574" type="line"/>
      <point x="842" y="1574" type="line"/>
      <point x="672" y="1910" type="line"/>
      <point x="296" y="1910" type="line"/>
    </contour>
  </outline>
</glyph>
<glyph name="Hbar" format="1">
  <advance width="1152"/>
  <unicode hex="0126"/>
  <outline>
    <contour>
      <point x="80" y="0" type="line"/>
      <point x="381" y="0" type="line"/>
      <point x="381" y="664" type="line"/>
      <point x="770" y="664" type="line"/>
      <point x="770" y="0" type="line"/>
      <point x="1073" y="0" type="line"/>
      <point x="1073" y="1105" type="line"/>
      <point x="1156" y="1105" type="line"/>
      <point x="1156" y="1200" type="line"/>
      <point x="1073" y="1200" type="line"/>
      <point x="1073" y="1490" type="line"/>
      <point x="770" y="1490" type="line"/>
      <point x="770" y="1200" type="line"/>
      <point x="381" y="1200" type="line"/>
      <point x="381" y="1490" type="line"/>
      <point x="80" y="1490" type="line"/>
      <point x="80" y="1200" type="line"/>
      <point x="-3" y="1200" type="line"/>
      <point x="-3" y="1105" type="line"/>
      <point x="80" y="1105" type="line"/>
    </contour>
    <contour>
      <point x="381" y="879" type="line"/>
      <point x="381" y="1105" type="line"/>
      <point x="770" y="1105" type="line"/>
      <point x="770" y="879" type="line"/>
    </contour>
  </outline>
</glyph>
<glyph name="lslash" format="1">
  <advance width="520"/>
  <unicode hex="0142"/>
  <outline>
    <contour>
      <point x="135" y="0" type="line"/>
      <point x="414" y="0" type="line"/>
      <point x="414" y="871" type="line"/>
      <point x="568" y="928" type="line"/>
      <point x="568" y="1080" type="line"/>
      <point x="414" y="1022" type="line"/>
      <point x="414" y="1490" type="line"/>
      <point x="135" y="1490" type="line"/>
      <point x="135" y="916" type="line"/>
      <point x="-15" y="860" type="line"/>
      <point x="-15" y="708" type="line"/>
      <point x="135" y="765" type="line"/>
    </contour>
  </outline>
</glyph>
<glyph name="Ncaron" format="1">
  <advance width="1334"/>
  <unicode hex="0147"/>
  <outline>
    <contour>
      <point x="478" y="1556" type="line"/>
      <point x="854" y="1556" type="line"/>
      <point x="1024" y="1892" type="line"/>
      <point x="777" y="1892" type="line"/>
      <point x="665" y="1726" type="line"/>
      <point x="557" y="1892" type="line"/>
      <point x="311" y="1892" type="line"/>
    </contour>
    <contour>
      <point x="162" y="0" type="line"/>
      <point x="466" y="0" type="line"/>
      <point x="466" y="868" type="line"/>
      <point x="1093" y="0" type="line"/>
      <point x="1287" y="0" type="line"/>
      <point x="1287" y="1490" type="line"/>
      <point x="986" y="1490" type="line"/>
      <point x="986" y="645" type="line"/>
      <point x="382" y="1490" type="line"/>
      <point x="162" y="1490" type="line"/>
    </contour>
  </outline>
</glyph>
<glyph name="ncaron" format="1">
  <advance width="990"/>
  <unicode hex="0148"/>
  <outline>
    <contour>
      <point x="131" y="0" type="line"/>
      <point x="441" y="0" type="line"/>
      <point x="441" y="814" type="line" smooth="yes"/>
      <point x="441" y="851"/>
      <point x="511" y="894"/>
      <point x="572" y="894" type="curve" smooth="yes"/>
      <point x="621" y="894"/>
      <point x="664" y="867"/>
      <point x="664" y="790" type="curve" smooth="yes"/>
      <point x="664" y="0" type="line"/>
      <point x="975" y="0" type="line"/>
      <point x="975" y="854" type="line" smooth="yes"/>
      <point x="975" y="991"/>
      <point x="880" y="1104"/>
      <point x="719" y="1104" type="curve" smooth="yes"/>
      <point x="573" y="1104"/>
      <point x="499" y="1050"/>
      <point x="441" y="1004" type="curve"/>
      <point x="441" y="1080" type="line"/>
      <point x="131" y="1080" type="line"/>
    </contour>
    <contour>
      <point x="298" y="1188" type="line"/>
      <point x="674" y="1188" type="line"/>
      <point x="844" y="1524" type="line"/>
      <point x="597" y="1524" type="line"/>
      <point x="485" y="1358" type="line"/>
      <point x="377" y="1524" type="line"/>
      <point x="131" y="1524" type="line"/>
    </contour>
  </outline>
</glyph>
<glyph name="Rcommaaccent" format="1">
  <advance width="1156"/>
  <unicode hex="0156"/>
  <outline>
    <contour>
      <point x="89" y="0" type="line"/>
      <point x="390" y="0" type="line"/>
      <point x="390" y="686" type="line"/>
      <point x="479" y="686" type="line"/>
      <point x="786" y="0" type="line"/>
      <point x="1098" y="0" type="line"/>
      <point x="1014" y="247"/>
      <point x="939" y="483"/>
      <point x="927" y="720" type="curve"/>
      <point x="1131" y="799"/>
      <point x="1150" y="966"/>
      <point x="1150" y="1097" type="curve" smooth="yes"/>
      <point x="1150" y="1387"/>
      <point x="955" y="1490"/>
      <point x="437" y="1490" type="curve" smooth="yes"/>
      <point x="89" y="1490" type="line"/>
    </contour>
    <contour>
      <point x="390" y="870" type="line"/>
      <point x="390" y="1269" type="line"/>
      <point x="570" y="1269" type="line" smooth="yes"/>
      <point x="732" y="1269"/>
      <point x="753" y="1128"/>
      <point x="753" y="1073" type="curve" smooth="yes"/>
      <point x="753" y="1018"/>
      <point x="725" y="870"/>
      <point x="545" y="870" type="curve" smooth="yes"/>
    </contour>
  </outline>
</glyph>
<glyph name="ubreve" format="1">
  <advance width="992"/>
  <unicode hex="016D"/>
  <outline>
    <contour>
      <point x="975" y="1080" type="line"/>
      <point x="664" y="1080" type="line"/>
      <point x="664" y="266" type="line" smooth="yes"/>
      <point x="664" y="229"/>
      <point x="595" y="186"/>
      <point x="534" y="186" type="curve" smooth="yes"/>
      <point x="485" y="186"/>
      <point x="441" y="213"/>
      <point x="441" y="290" type="curve" smooth="yes"/>
      <point x="441" y="1080" type="line"/>
      <point x="131" y="1080" type="line"/>
      <point x="131" y="226" type="line" smooth="yes"/>
      <point x="131" y="89"/>
      <point x="225" y="-24"/>
      <point x="386" y="-24" type="curve" smooth="yes"/>
      <point x="532" y="-24"/>
      <point x="606" y="30"/>
      <point x="664" y="76" type="curve"/>
      <point x="664" y="0" type="line"/>
      <point x="975" y="0" type="line"/>
    </contour>
    <contour>
      <point x="205" y="1393" type="line"/>
      <point x="205" y="1271"/>
      <point x="292" y="1188"/>
      <point x="414" y="1188" type="curve" smooth="yes"/>
      <point x="536" y="1188"/>
      <point x="623" y="1271"/>
      <point x="623" y="1393" type="curve"/>
      <point x="481" y="1393" type="line"/>
      <point x="481" y="1352"/>
      <point x="465" y="1288"/>
      <point x="414" y="1288" type="curve" smooth="yes"/>
      <point x="363" y="1288"/>
      <point x="347" y="1352"/>
      <point x="347" y="1393" type="curve"/>
    </contour>
  </outline>
</glyph>
<glyph name="Uogonek" format="1">
  <advance width="1373"/>
  <unicode hex="0172"/>
  <outline>
    <contour>
      <point x="1236" y="-296" type="line"/>
      <point x="1172" y="-296"/>
      <point x="1077" y="-297"/>
      <point x="1077" y="-199" type="curve" smooth="yes"/>
      <point x="1077" y="-123"/>
      <point x="1111" y="-58"/>
      <point x="1136" y="13" type="curve"/>
      <point x="1014" y="13" type="line"/>
      <point x="949" y="-49"/>
      <point x="889" y="-153"/>
      <point x="889" y="-244" type="curve" smooth="yes"/>
      <point x="889" y="-424"/>
      <point x="1084" y="-432"/>
      <point x="1219" y="-429" type="curve"/>
    </contour>
    <contour>
      <point x="925" y="1490" type="line"/>
      <point x="925" y="404" type="line" smooth="yes"/>
      <point x="925" y="286"/>
      <point x="911" y="237"/>
      <point x="701" y="237" type="curve" smooth="yes"/>
      <point x="494" y="237"/>
      <point x="477" y="285"/>
      <point x="477" y="404" type="curve" smooth="yes"/>
      <point x="477" y="1490" type="line"/>
      <point x="139" y="1490" type="line"/>
      <point x="139" y="473" type="line" smooth="yes"/>
      <point x="139" y="186"/>
      <point x="212" y="-29"/>
      <point x="648" y="-29" type="curve" smooth="yes"/>
      <point x="753" y="-29" type="line" smooth="yes"/>
      <point x="1189" y="-29"/>
      <point x="1264" y="203"/>
      <point x="1264" y="490" type="curve" smooth="yes"/>
      <point x="1264" y="1490" type="line"/>
    </contour>
  </outline>
</glyph>
<glyph name="Ydieresis" format="1">
  <advance width="1204"/>
  <unicode hex="0178"/>
  <outline>
    <contour>
      <point x="201" y="1645" type="line"/>
      <point x="490" y="1645" type="line"/>
      <point x="490" y="1900" type="line"/>
      <point x="201" y="1900" type="line"/>
    </contour>
    <contour>
      <point x="713" y="1645" type="line"/>
      <point x="1003" y="1645" type="line"/>
      <point x="1003" y="1900" type="line"/>
      <point x="713" y="1900" type="line"/>
    </contour>
    <contour>
      <point x="340" y="0" type="line"/>
      <point x="668" y="0" type="line"/>
      <point x="668" y="492" type="line"/>
      <point x="1206" y="1490" type="line"/>
      <point x="873" y="1490" type="line"/>
      <point x="782" y="1275"/>
      <point x="689" y="1050"/>
      <point x="598" y="835" type="curve"/>
      <point x="347" y="1490" type="line"/>
      <point x="-1" y="1490" type="line"/>
      <point x="340" y="492" type="line"/>
    </contour>
  </outline>
</glyph>
<glyph name="uni01C6" format="1">
  <advance width="1801"/>
  <unicode hex="01C6"/>
  <outline>
    <contour>
      <point x="1033" y="0" type="line"/>
      <point x="1761" y="0" type="line"/>
      <point x="1761" y="202" type="line"/>
      <point x="1384" y="202" type="line"/>
      <point x="1761" y="895" type="line"/>
      <point x="1761" y="1080" type="line"/>
      <point x="1080" y="1080" type="line"/>
      <point x="1080" y="879" type="line"/>
      <point x="1405" y="879" type="line"/>
      <point x="1033" y="189" type="line"/>
    </contour>
    <contour>
      <point x="1242" y="1146" type="line"/>
      <point x="1618" y="1146" type="line"/>
      <point x="1788" y="1482" type="line"/>
      <point x="1541" y="1482" type="line"/>
      <point x="1429" y="1316" type="line"/>
      <point x="1321" y="1482" type="line"/>
      <point x="1075" y="1482" type="line"/>
    </contour>
    <contour>
      <point x="428" y="281" type="curve" smooth="yes"/>
      <point x="428" y="789" type="line" smooth="yes"/>
      <point x="428" y="837"/>
      <point x="450" y="894"/>
      <point x="534" y="894" type="curve" smooth="yes"/>
      <point x="600" y="894"/>
      <point x="656" y="848"/>
      <point x="656" y="813" type="curve" smooth="yes"/>
      <point x="656" y="253" type="line" smooth="yes"/>
      <point x="656" y="219"/>
      <point x="585" y="181"/>
      <point x="525" y="181" type="curve" smooth="yes"/>
      <point x="453" y="181"/>
      <point x="428" y="221"/>
    </contour>
    <contour>
      <point x="967" y="0" type="line"/>
      <point x="967" y="1490" type="line"/>
      <point x="656" y="1490" type="line"/>
      <point x="656" y="1007" type="line"/>
      <point x="622" y="1040"/>
      <point x="570" y="1105"/>
      <point x="430" y="1105" type="curve" smooth="yes"/>
      <point x="243" y="1105"/>
      <point x="118" y="977"/>
      <point x="118" y="828" type="curve" smooth="yes"/>
      <point x="118" y="240" type="line" smooth="yes"/>
      <point x="118" y="87"/>
      <point x="266" y="-25"/>
      <point x="410" y="-25" type="curve" smooth="yes"/>
      <point x="530" y="-25"/>
      <point x="608" y="21"/>
      <point x="656" y="81" type="curve"/>
      <point x="656" y="0" type="line"/>
    </contour>
  </outline>
</glyph>
<glyph name="uni01CA" format="1">
  <advance width="1906"/>
  <unicode hex="01CA"/>
  <outline>
    <contour>
      <point x="734" y="0" type="line"/>
      <point x="1038" y="0" type="line"/>
      <point x="1038" y="868" type="line"/>
      <point x="1665" y="0" type="line"/>
      <point x="1859" y="0" type="line"/>
      <point x="1859" y="1490" type="line"/>
      <point x="1558" y="1490" type="line"/>
      <point x="1558" y="645" type="line"/>
      <point x="954" y="1490" type="line"/>
      <point x="734" y="1490" type="line"/>
    </contour>
    <contour>
      <point x="0" y="-28" type="line"/>
      <point x="148" y="-28" type="line" smooth="yes"/>
      <point x="429" y="-28"/>
      <point x="483" y="100"/>
      <point x="483" y="357" type="curve" smooth="yes"/>
      <point x="483" y="1490" type="line"/>
      <point x="182" y="1490" type="line"/>
      <point x="182" y="360" type="line" smooth="yes"/>
      <point x="182" y="212"/>
      <point x="144" y="182"/>
      <point x="0" y="184" type="curve"/>
    </contour>
  </outline>
</glyph>
<glyph name="uni01F5" format="1">
  <advance width="966"/>
  <unicode hex="01F5"/>
  <outline>
    <contour>
      <point x="271" y="281" type="curve" smooth="yes"/>
      <point x="271" y="288"/>
      <point x="290" y="325"/>
      <point x="290" y="325" type="curve"/>
      <point x="290" y="325"/>
      <point x="368" y="313"/>
      <point x="429" y="313" type="curve" smooth="yes"/>
      <point x="763" y="313"/>
      <point x="880" y="486"/>
      <point x="880" y="681" type="curve" smooth="yes"/>
      <point x="880" y="742"/>
      <point x="877" y="811"/>
      <point x="845" y="869" type="curve"/>
      <point x="875" y="899"/>
      <point x="923" y="905"/>
      <point x="964" y="905" type="curve"/>
      <point x="987" y="1105" type="line"/>
      <point x="952" y="1105" type="line" smooth="yes"/>
      <point x="882" y="1105"/>
      <point x="796" y="1090"/>
      <point x="749" y="1036" type="curve"/>
      <point x="702" y="1086"/>
      <point x="573" y="1105"/>
      <point x="445" y="1105" type="curve" smooth="yes"/>
      <point x="153" y="1105"/>
      <point x="60" y="906"/>
      <point x="60" y="702" type="curve" smooth="yes"/>
      <point x="60" y="597"/>
      <point x="94" y="486"/>
      <point x="145" y="392" type="curve"/>
      <point x="111" y="349"/>
      <point x="35" y="250"/>
      <point x="35" y="205" type="curve" smooth="yes"/>
      <point x="35" y="173"/>
      <point x="102" y="134"/>
      <point x="132" y="119" type="curve"/>
      <point x="66" y="71"/>
      <point x="18" y="-10"/>
      <point x="18" y="-88" type="curve" smooth="yes"/>
      <point x="18" y="-272"/>
      <point x="282" y="-282"/>
      <point x="494" y="-282" type="curve" smooth="yes"/>
      <point x="780" y="-282"/>
      <point x="957" y="-233"/>
      <point x="957" y="4" type="curve" smooth="yes"/>
      <point x="957" y="249"/>
      <point x="271" y="183"/>
    </contour>
    <contour>
      <point x="433" y="523" type="curve" smooth="yes"/>
      <point x="320" y="523"/>
      <point x="319" y="656"/>
      <point x="319" y="704" type="curve" smooth="yes"/>
      <point x="319" y="798"/>
      <point x="323" y="912"/>
      <point x="441" y="912" type="curve" smooth="yes"/>
      <point x="554" y="912"/>
      <point x="555" y="763"/>
      <point x="555" y="715" type="curve" smooth="yes"/>
      <point x="555" y="665"/>
      <point x="554" y="523"/>
    </contour>
    <contour>
      <point x="296" y="65" type="line"/>
      <point x="412" y="62"/>
      <point x="685" y="53"/>
      <point x="685" y="-31" type="curve" smooth="yes"/>
      <point x="685" y="-91"/>
      <point x="552" y="-87"/>
      <point x="506" y="-87" type="curve" smooth="yes"/>
      <point x="418" y="-87"/>
      <point x="239" y="-84"/>
      <point x="239" y="-38" type="curve" smooth="yes"/>
      <point x="239" y="0"/>
      <point x="259" y="38"/>
      <point x="276" y="65" type="curve"/>
    </contour>
    <contour>
      <point x="334" y="1189" type="line"/>
      <point x="502" y="1189" type="line"/>
      <point x="732" y="1554" type="line"/>
      <point x="446" y="1554" type="line"/>
    </contour>
  </outline>
</glyph>
<glyph name="uni020A" format="1">
  <advance width="478"/>
  <unicode hex="020A"/>
  <outline>
    <contour>
      <point x="172" y="1603" type="line"/>
      <point x="172" y="1644"/>
      <point x="188" y="1708"/>
      <point x="239" y="1708" type="curve" smooth="yes"/>
      <point x="290" y="1708"/>
      <point x="306" y="1644"/>
      <point x="306" y="1603" type="curve"/>
      <point x="448" y="1603" type="line"/>
      <point x="448" y="1725"/>
      <point x="361" y="1808"/>
      <point x="239" y="1808" type="curve" smooth="yes"/>
      <point x="117" y="1808"/>
      <point x="30" y="1725"/>
      <point x="30" y="1603" type="curve"/>
    </contour>
    <contour>
      <point x="89" y="0" type="line"/>
      <point x="390" y="0" type="line"/>
      <point x="390" y="1490" type="line"/>
      <point x="89" y="1490" type="line"/>
    </contour>
  </outline>
</glyph>
<glyph name="uni0212" format="1">
  <advance width="1156"/>
  <unicode hex="0212"/>
  <outline>
    <contour>
      <point x="479" y="1599" type="line"/>
      <point x="479" y="1640"/>
      <point x="495" y="1704"/>
      <point x="546" y="1704" type="curve" smooth="yes"/>
      <point x="597" y="1704"/>
      <point x="613" y="1640"/>
      <point x="613" y="1599" type="curve"/>
      <point x="755" y="1599" type="line"/>
      <point x="755" y="1721"/>
      <point x="668" y="1804"/>
      <point x="546" y="1804" type="curve" smooth="yes"/>
      <point x="424" y="1804"/>
      <point x="337" y="1721"/>
      <point x="337" y="1599" type="curve"/>
    </contour>
    <contour>
      <point x="89" y="0" type="line"/>
      <point x="390" y="0" type="line"/>
      <point x="390" y="686" type="line"/>
      <point x="479" y="686" type="line"/>
      <point x="786" y="0" type="line"/>
      <point x="1098" y="0" type="line"/>
      <point x="1014" y="247"/>
      <point x="939" y="483"/>
      <point x="927" y="720" type="curve"/>
      <point x="1131" y="799"/>
      <point x="1150" y="966"/>
      <point x="1150" y="1097" type="curve" smooth="yes"/>
      <point x="1150" y="1387"/>
      <point x="955" y="1490"/>
      <point x="437" y="1490" type="curve" smooth="yes"/>
      <point x="89" y="1490" type="line"/>
    </contour>
    <contour>
      <point x="390" y="870" type="line"/>
      <point x="390" y="1269" type="line"/>
      <point x="570" y="1269" type="line" smooth="yes"/>
      <point x="732" y="1269"/>
      <point x="753" y="1128"/>
      <point x="753" y="1073" type="curve" smooth="yes"/>
      <point x="753" y="1018"/>
      <point x="725" y="870"/>
      <point x="545" y="870" type="curve" smooth="yes"/>
    </contour>
  </outline>
</glyph>
<glyph name="uni0237" format="1">
  <advance width="530"/>
  <unicode hex="0237"/>
  <outline>
    <contour>
      <point x="40" y="-235" type="line"/>
      <point x="88" y="-247"/>
      <point x="138" y="-257"/>
      <point x="188" y="-257" type="curve" smooth="yes"/>
      <point x="363" y="-257"/>
      <point x="453" y="-148"/>
      <point x="453" y="22" type="curve" smooth="yes"/>
      <point x="453" y="1080" type="line"/>
      <point x="175" y="1080" type="line"/>
      <point x="175" y="46" type="line" smooth="yes"/>
      <point x="175" y="3"/>
      <point x="164" y="-46"/>
      <point x="113" y="-46" type="curve" smooth="yes"/>
      <point x="89" y="-46"/>
      <point x="63" y="-40"/>
      <point x="40" y="-33" type="curve"/>
    </contour>
  </outline>
</glyph>
<glyph name="breve" format="1">
  <advance width="602"/>
  <unicode hex="02D8"/>
  <outline>
    <contour>
      <point x="79" y="1395" type="line"/>
      <point x="79" y="1273"/>
      <point x="166" y="1190"/>
      <point x="288" y="1190" type="curve" smooth="yes"/>
      <point x="410" y="1190"/>
      <point x="497" y="1273"/>
      <point x="497" y="1395" type="curve"/>
      <point x="355" y="1395" type="line"/>
      <point x="355" y="1354"/>
      <point x="339" y="1290"/>
      <point x="288" y="1290" type="curve" smooth="yes"/>
      <point x="237" y="1290"/>
      <point x="221" y="1354"/>
      <point x="221" y="1395" type="curve"/>
    </contour>
  </outline>
</glyph>
<glyph name="uni0326" format="1">
  <advance width="418"/>
  <unicode hex="0326"/>
  <outline>
    <contour>
      <point x="127" y="-529" type="line"/>
      <point x="139" y="-531"/>
      <point x="151" y="-532"/>
      <point x="163" y="-532" type="curve" smooth="yes"/>
      <point x="367" y="-532"/>
      <point x="337" y="-336"/>
      <point x="337" y="-65" type="curve"/>
      <point x="70" y="-65" type="line"/>
      <point x="70" y="-328" type="line"/>
      <point x="161" y="-328" type="line"/>
      <point x="160" y="-398"/>
      <point x="154" y="-391"/>
      <point x="94" y="-391" type="curve"/>
    </contour>
  </outline>
</glyph>
<glyph name="mu" format="1">
  <advance width="996"/>
  <unicode hex="03BC"/>
  <outline>
    <contour>
      <point x="111" y="-148" type="line"/>
      <point x="388" y="-148" type="line"/>
      <point x="388" y="-5" type="line"/>
      <point x="475" y="16"/>
      <point x="554" y="53"/>
      <point x="614" y="94" type="curve"/>
      <point x="614" y="0" type="line"/>
      <point x="893" y="0" type="line"/>
      <point x="893" y="1080" type="line"/>
      <point x="615" y="1080" type="line"/>
      <point x="615" y="247" type="line"/>
      <point x="584" y="225"/>
      <point x="523" y="181"/>
      <point x="457" y="181" type="curve" smooth="yes"/>
      <point x="394" y="181"/>
      <point x="389" y="219"/>
      <point x="389" y="250" type="curve" smooth="yes"/>
      <point x="389" y="1080" type="line"/>
      <point x="111" y="1080" type="line"/>
    </contour>
  </outline>
</glyph>
<glyph name="uni1E1E" format="1">
  <advance width="801"/>
  <unicode hex="1E1E"/>
  <outline>
    <contour>
      <point x="313" y="1619" type="line"/>
      <point x="580" y="1619" type="line"/>
      <point x="580" y="1883" type="line"/>
      <point x="313" y="1883" type="line"/>
    </contour>
    <contour>
      <point x="162" y="0" type="line"/>
      <point x="501" y="0" type="line"/>
      <point x="501" y="621" type="line"/>
      <point x="864" y="621" type="line"/>
      <point x="864" y="861" type="line"/>
      <point x="501" y="861" type="line"/>
      <point x="501" y="1228" type="line"/>
      <point x="943" y="1228" type="line"/>
      <point x="943" y="1490" type="line"/>
      <point x="162" y="1490" type="line"/>
    </contour>
  </outline>
</glyph>
<glyph name="uni1E40" format="1">
  <advance width="1869"/>
  <unicode hex="1E40"/>
  <outline>
    <contour>
      <point x="801" y="1619" type="line"/>
      <point x="1068" y="1619" type="line"/>
      <point x="1068" y="1883" type="line"/>
      <point x="801" y="1883" type="line"/>
    </contour>
    <contour>
      <point x="89" y="0" type="line"/>
      <point x="311" y="0" type="line"/>
      <point x="323" y="1054" type="line"/>
      <point x="652" y="0" type="line"/>
      <point x="877" y="0" type="line"/>
      <point x="965" y="322"/>
      <point x="1282" y="726"/>
      <point x="1370" y="1048" type="curve"/>
      <point x="1202" y="0" type="line"/>
      <point x="1424" y="0" type="line"/>
      <point x="1781" y="1490" type="line"/>
      <point x="1154" y="1490" type="line"/>
      <point x="760" y="496" type="line"/>
      <point x="560" y="1490" type="line"/>
      <point x="89" y="1490" type="line"/>
    </contour>
  </outline>
</glyph>
<glyph name="Wdieresis" format="1">
  <advance width="1409"/>
  <unicode hex="1E84"/>
  <outline>
    <contour>
      <point x="304" y="1645" type="line"/>
      <point x="593" y="1645" type="line"/>
      <point x="593" y="1900" type="line"/>
      <point x="304" y="1900" type="line"/>
    </contour>
    <contour>
      <point x="816" y="1645" type="line"/>
      <point x="1106" y="1645" type="line"/>
      <point x="1106" y="1900" type="line"/>
      <point x="816" y="1900" type="line"/>
    </contour>
    <contour>
      <point x="223" y="0" type="line"/>
      <point x="481" y="0" type="line"/>
      <point x="701" y="975" type="line"/>
      <point x="926" y="0" type="line"/>
      <point x="1183" y="0" type="line"/>
      <point x="1392" y="1490" type="line"/>
      <point x="1135" y="1490" type="line"/>
      <point x="1038" y="509" type="line"/>
      <point x="902" y="1490" type="line"/>
      <point x="505" y="1490" type="line"/>
      <point x="367" y="503" type="line"/>
      <point x="274" y="1490" type="line"/>
      <point x="17" y="1490" type="line"/>
    </contour>
  </outline>
</glyph>
<glyph name="emdash" format="1">
  <advance width="899"/>
  <unicode hex="2014"/>
  <outline>
    <contour>
      <point x="3" y="375" type="line"/>
      <point x="895" y="375" type="line"/>
      <point x="895" y="559" type="line"/>
      <point x="3" y="559" type="line"/>
    </contour>
  </outline>
</glyph>
<glyph name="ellipsis" format="1">
  <advance width="1295"/>
  <unicode hex="2026"/>
  <outline>
    <contour>
      <point x="82" y="0" type="line"/>
      <point x="351" y="0" type="line"/>
      <point x="351" y="262" type="line"/>
      <point x="82" y="262" type="line"/>
    </contour>
    <contour>
      <point x="946" y="0" type="line"/>
      <point x="1215" y="0" type="line"/>
      <point x="1215" y="262" type="line"/>
      <point x="946" y="262" type="line"/>
    </contour>
    <contour>
      <point x="1810" y="0" type="line"/>
      <point x="2079" y="0" type="line"/>
      <point x="2079" y="262" type="line"/>
      <point x="1810" y="262" type="line"/>
    </contour>
  </outline>
</glyph>
<glyph name="uni2074" format="1">
  <advance width="737"/>
  <unicode hex="2074"/>
  <outline>
    <contour>
      <point x="59" y="697" type="line"/>
      <point x="379" y="697" type="line"/>
      <point x="379" y="482" type="line"/>
      <point x="562" y="482" type="line"/>
      <point x="562" y="697" type="line"/>
      <point x="670" y="697" type="line"/>
      <point x="670" y="828" type="line"/>
      <point x="562" y="828" type="line"/>
      <point x="562" y="1310" type="line"/>
      <point x="401" y="1310" type="line"/>
      <point x="59" y="819" type="line"/>
    </contour>
    <contour>
      <point x="250" y="828" type="line"/>
      <point x="379" y="980" type="line"/>
      <point x="379" y="828" type="line"/>
    </contour>
  </outline>
</glyph>
<glyph name="trademark" format="1">
  <advance width="2267"/>
  <unicode hex="2122"/>
  <outline>
    <contour>
      <point x="273" y="568" type="line"/>
      <point x="414" y="568" type="line"/>
      <point x="414" y="1129" type="line"/>
      <point x="658" y="1129" type="line"/>
      <point x="658" y="1256" type="line"/>
      <point x="138" y="1256" type="line"/>
      <point x="138" y="1129" type="line"/>
      <point x="273" y="1129" type="line"/>
    </contour>
    <contour>
      <point x="795" y="568" type="line"/>
      <point x="926" y="568" type="line"/>
      <point x="926" y="1027" type="line"/>
      <point x="1130" y="568" type="line"/>
      <point x="1283" y="568" type="line"/>
      <point x="1487" y="1027" type="line"/>
      <point x="1487" y="568" type="line"/>
      <point x="1620" y="568" type="line"/>
      <point x="1620" y="1256" type="line"/>
      <point x="1365" y="1256" type="line"/>
      <point x="1206" y="881" type="line"/>
      <point x="1051" y="1256" type="line"/>
      <point x="795" y="1256" type="line"/>
    </contour>
  </outline>
</glyph>
<glyph name="uniFB02" format="1">
  <advance width="1167"/>
  <unicode hex="FB02"/>
  <outline>
    <contour>
      <point x="810" y="0" type="line"/>
      <point x="1088" y="0" type="line"/>
      <point x="1088" y="1414" type="line"/>
      <point x="857" y="1424"/>
      <point x="606" y="1436"/>
      <point x="391" y="1436" type="curve" smooth="yes"/>
      <point x="162" y="1436"/>
      <point x="123" y="1272"/>
      <point x="118" y="1104" type="curve"/>
      <point x="118" y="1096"/>
      <point x="117" y="1088"/>
      <point x="117" y="1080" type="curve"/>
      <point x="54" y="1080" type="line"/>
      <point x="54" y="894" type="line"/>
      <point x="117" y="894" type="line"/>
      <point x="117" y="0" type="line"/>
      <point x="396" y="0" type="line"/>
      <point x="396" y="894" type="line"/>
      <point x="638" y="894" type="line"/>
      <point x="638" y="1080" type="line"/>
      <point x="396" y="1080" type="line"/>
      <point x="396" y="1130" type="line" smooth="yes"/>
      <point x="396" y="1201"/>
      <point x="433" y="1221"/>
      <point x="512" y="1221" type="curve" smooth="yes"/>
      <point x="564" y="1221"/>
      <point x="724" y="1218"/>
      <point x="810" y="1216" type="curve"/>
    </contour>
  </outline>
</glyph>
<glyph name="tt" format="1">
  <advance width="1220"/>
  <outline>
    <contour>
      <point x="97" y="371" type="line"/>
      <point x="97" y="182"/>
      <point x="121" y="-12"/>
      <point x="356" y="-12" type="curve" smooth="yes"/>
      <point x="439" y="-12"/>
      <point x="560" y="-13"/>
      <point x="658" y="4" type="curve"/>
      <point x="658" y="220" type="line"/>
      <point x="609" y="216"/>
      <point x="561" y="215"/>
      <point x="512" y="215" type="curve" smooth="yes"/>
      <point x="406" y="215"/>
      <point x="375" y="248"/>
      <point x="375" y="304" type="curve" smooth="yes"/>
      <point x="375" y="894" type="line"/>
      <point x="771" y="894" type="line"/>
      <point x="771" y="371" type="line" smooth="yes"/>
      <point x="771" y="182"/>
      <point x="795" y="-12"/>
      <point x="1030" y="-12" type="curve" smooth="yes"/>
      <point x="1085" y="-12"/>
      <point x="1151" y="-13"/>
      <point x="1206" y="4" type="curve"/>
      <point x="1206" y="220" type="line"/>
      <point x="1179" y="216"/>
      <point x="1152" y="215"/>
      <point x="1125" y="215" type="curve" smooth="yes"/>
      <point x="1066" y="215"/>
      <point x="1049" y="248"/>
      <point x="1049" y="304" type="curve" smooth="yes"/>
      <point x="1049" y="894" type="line"/>
      <point x="1184" y="894" type="line"/>
      <point x="1184" y="1080" type="line"/>
      <point x="1049" y="1080" type="line"/>
      <point x="1049" y="1435" type="line"/>
      <point x="771" y="1435" type="line"/>
      <point x="771" y="1080" type="line"/>
      <point x="375" y="1080" type="line"/>
      <point x="375" y="1435" type="line"/>
      <point x="97" y="1435" type="line"/>
      <point x="97" y="1080" type="line"/>
      <point x="17" y="1080" type="line"/>
      <point x="17" y="894" type="line"/>
      <point x="97" y="894" type="line"/>
    </contour>
  </outline>
</glyph>
